<svg aria-hidden="true" style="position: absolute; width: 0; height: 0; overflow: hidden;" version="1.1" xmlns="http://www.w3.org/2000/svg" xmlns:xlink="http://www.w3.org/1999/xlink">
<defs>
<symbol id="poseidon-logo" viewBox="0 0 143 32">
<path fill="#344fb5" style="fill: var(--color1, #344fb5)" d="M30.647 19.423c0.142-0.523 0.255-1.053 0.339-1.588-0.871 2.547-2.447 4.795-4.543 6.484s-4.628 2.749-7.302 3.058c-2.674 0.309-5.381-0.145-7.807-1.311s-4.473-2.995-5.903-5.276l-5.431 3.142c1.734 2.799 4.248 5.030 7.234 6.418s6.312 1.872 9.57 1.393 6.304-1.901 8.763-4.090c2.46-2.189 4.225-5.049 5.079-8.229z"></path>
<path fill="#3677e3" style="fill: var(--color2, #3677e3)" d="M12.358 15.616l11.75-6.786c0.116-0.048 0.245-0.051 0.363-0.011s0.218 0.124 0.279 0.233c0.062 0.109 0.081 0.237 0.055 0.359s-0.096 0.231-0.196 0.306l-11.761 6.786c0.256 0.409 0.541 0.799 0.853 1.168 0.359 0.418 0.75 0.809 1.168 1.168l4.462-3.504c0.052-0.042 0.112-0.073 0.176-0.092s0.131-0.024 0.198-0.017c0.066 0.008 0.131 0.028 0.189 0.061s0.109 0.077 0.15 0.129c0.069 0.091 0.106 0.201 0.105 0.315v1.051l4.333-3.504c0.053-0.042 0.114-0.074 0.179-0.093s0.133-0.024 0.2-0.017c0.067 0.008 0.132 0.028 0.192 0.061s0.111 0.077 0.154 0.13c0.042 0.052 0.073 0.112 0.092 0.176s0.024 0.131 0.017 0.198c-0.008 0.066-0.028 0.131-0.061 0.189s-0.077 0.109-0.129 0.15l-5.151 4.146c-0.089 0.074-0.2 0.115-0.315 0.117-0.134 0-0.263-0.053-0.359-0.146s-0.151-0.222-0.154-0.356v-1.075l-3.632 2.885c-0.096 0.066-0.21 0.103-0.327 0.105-0.085 0.104-0.207 0.17-0.34 0.186s-0.267-0.022-0.373-0.104c-0.564-0.422-1.085-0.899-1.553-1.425-0.357-0.404-0.685-0.834-0.981-1.285l-5.653 3.27c1.807 3.019 4.74 5.196 8.153 6.052s7.026 0.322 10.044-1.485 5.196-4.74 6.052-8.153c0.856-3.413 0.322-7.026-1.485-10.044l-0.058-0.105c-0.006-0.027-0.006-0.055 0-0.082-1.259-2.148-3.314-3.712-5.72-4.353s-4.967-0.306-7.128 0.931c-1.090 0.611-2.047 1.434-2.813 2.421s-1.327 2.118-1.649 3.325c-0.252 0.905-0.37 1.841-0.35 2.78l4.041-1.6-0.911-0.537c-0.117-0.068-0.203-0.18-0.238-0.312s-0.017-0.271 0.051-0.389c0.059-0.1 0.149-0.178 0.257-0.222l6.167-2.336c0.062-0.024 0.128-0.035 0.195-0.033s0.132 0.017 0.193 0.044c0.061 0.027 0.116 0.066 0.161 0.114s0.082 0.105 0.105 0.167c0.024 0.062 0.035 0.128 0.033 0.195s-0.017 0.132-0.044 0.193c-0.027 0.061-0.066 0.116-0.114 0.161s-0.105 0.082-0.167 0.105l-5.174 1.95 0.899 0.537c0.099 0.057 0.174 0.148 0.21 0.257 0.025 0.061 0.037 0.127 0.036 0.193s-0.014 0.131-0.041 0.192-0.064 0.116-0.111 0.162c-0.047 0.046-0.103 0.082-0.165 0.107l-5.268 2.102 0.911 2.885z"></path>
<path fill="#93c3ff" style="fill: var(--color3, #93c3ff)" d="M15.558 2.266c2.134-1.238 4.639-1.677 7.066-1.238-0.552-0.226-1.118-0.417-1.693-0.572-2.482-0.654-5.101-0.572-7.538 0.236s-4.585 2.307-6.185 4.315c-1.599 2.008-2.58 4.438-2.823 6.993s0.263 5.127 1.456 7.4l5.665-3.27v-1.273l-0.058-0.164v-0.818h-0.934v-0.21c-0.058-0.245-0.093-0.502-0.128-0.747-0.294-2.078 0.041-4.196 0.961-6.081s2.383-3.453 4.202-4.5l0.012-0.070z"></path>
<path fill="#223991" style="fill: var(--color4, #223991)" d="M137.807 23.067h5.641v-14.167h-2.161l0.011 12.287h-1.529l-1.401-12.287h-5.642v14.167h2.219v-12.263h1.518l1.344 12.263z"></path>
<path fill="#223991" style="fill: var(--color4, #223991)" d="M117.846 15.966c-0.034-0.735 0.082-1.47 0.34-2.159 0.257-0.689 0.652-1.319 1.161-1.851 0.508-0.532 1.119-0.956 1.795-1.246s1.405-0.439 2.141-0.439c0.736 0 1.464 0.149 2.142 0.439 0.676 0.29 1.287 0.713 1.795 1.246s0.904 1.162 1.161 1.851c0.258 0.689 0.373 1.424 0.34 2.159 0 1.437-0.572 2.816-1.588 3.832s-2.394 1.587-3.832 1.587c-1.439-0.003-2.819-0.574-3.841-1.589-1.021-1.015-1.601-2.391-1.613-3.831zM130.869 15.966c0.002-1.5-0.44-2.967-1.272-4.216s-2.016-2.222-3.402-2.797c-1.385-0.575-2.91-0.726-4.382-0.434-1.471 0.292-2.823 1.014-3.884 2.075-1.060 1.061-1.782 2.412-2.074 3.884s-0.141 2.997 0.434 4.382c0.575 1.386 1.549 2.569 2.797 3.401s2.716 1.275 4.215 1.273c2.007-0.003 3.929-0.802 5.348-2.22s2.217-3.342 2.22-5.348z"></path>
<path fill="#223991" style="fill: var(--color4, #223991)" d="M106.634 20.942h-1.273v-9.916h1.273c1.367-0.051 2.699 0.444 3.702 1.375s1.595 2.222 1.647 3.589c-0.054 1.365-0.649 2.653-1.651 3.582s-2.332 1.421-3.698 1.371zM113.525 13.186c-0.386-0.848-0.938-1.61-1.623-2.242-1.432-1.326-3.316-2.057-5.267-2.044h-3.352v14.167h3.352c1.952 0.013 3.835-0.717 5.267-2.044 0.68-0.636 1.231-1.398 1.623-2.242 0.384-0.881 0.583-1.831 0.585-2.791-0.002-0.964-0.201-1.918-0.585-2.803z"></path>
<path fill="#223991" style="fill: var(--color4, #223991)" d="M99.428 10.979h1.845v-2.079h-5.735v2.079h1.857v10.103h-1.857v1.986h5.735v-1.986h-1.845v-10.103z"></path>
<path fill="#223991" style="fill: var(--color4, #223991)" d="M87.21 10.512c0.723-0.008 1.439 0.13 2.107 0.405s1.274 0.681 1.782 1.195c0.682 0.688 1.173 1.541 1.425 2.476h-10.512c0.248-0.934 0.735-1.788 1.413-2.476 1.003-1.008 2.362-1.583 3.784-1.6zM94.147 18.956l-2.336-0.175c-0.206 0.378-0.445 0.737-0.713 1.075-0.715 0.722-1.62 1.228-2.609 1.461s-2.025 0.182-2.987-0.145c-0.962-0.328-1.813-0.919-2.455-1.708s-1.049-1.741-1.175-2.75h12.871c0-0.222 0-0.455 0-0.701 0.011-1.887-0.679-3.71-1.935-5.117s-2.991-2.298-4.867-2.499-3.76 0.301-5.287 1.41c-1.527 1.108-2.588 2.744-2.977 4.59s-0.080 3.771 0.869 5.402c0.949 1.631 2.469 2.851 4.267 3.425s3.744 0.459 5.462-0.32c1.718-0.78 3.086-2.169 3.837-3.9l0.035-0.047z"></path>
<path fill="#223991" style="fill: var(--color4, #223991)" d="M75.787 16.772h-9.063v-7.872h11.142v2.067h-9.075v3.738h9.075v8.362h-11.142v-2.067h9.063v-4.228z"></path>
<path fill="#223991" style="fill: var(--color4, #223991)" d="M52.056 15.966c-0.012-1.088 0.303-2.154 0.903-3.062s1.458-1.614 2.464-2.029c1.006-0.415 2.113-0.519 3.178-0.298s2.040 0.755 2.799 1.535c0.508 0.504 0.91 1.104 1.181 1.767s0.406 1.372 0.396 2.088c0.008 0.71-0.127 1.414-0.398 2.071s-0.672 1.251-1.178 1.749c-0.759 0.772-1.73 1.3-2.79 1.518s-2.161 0.116-3.163-0.294-1.859-1.108-2.463-2.006c-0.604-0.898-0.927-1.956-0.928-3.038zM65.078 15.966c0.002-1.5-0.441-2.967-1.273-4.216s-2.016-2.222-3.401-2.797c-1.386-0.575-2.911-0.726-4.382-0.434s-2.823 1.014-3.884 2.075c-1.061 1.061-1.783 2.412-2.075 3.884s-0.141 2.997 0.434 4.382c0.575 1.386 1.549 2.569 2.797 3.401s2.715 1.275 4.216 1.273c2.006-0.003 3.929-0.802 5.348-2.22s2.217-3.342 2.22-5.348z"></path>
<path fill="#223991" style="fill: var(--color4, #223991)" d="M43.717 17.099h-1.787v-6.097h1.787c0.815 0.006 1.594 0.333 2.169 0.911s0.899 1.358 0.902 2.173c-0.009 0.806-0.338 1.576-0.913 2.141s-1.352 0.878-2.158 0.872zM43.717 8.923h-3.913v14.132h2.126v-3.831h1.787c0.679 0.013 1.353-0.113 1.982-0.37s1.198-0.64 1.674-1.125c0.482-0.477 0.865-1.045 1.127-1.67s0.399-1.296 0.403-1.974c-0.006-1.373-0.554-2.689-1.526-3.66s-2.287-1.52-3.66-1.526v0.023z"></path>
</symbol>
<symbol id="google-auth" viewBox="0 0 32 32">
<path fill="#4285f4" style="fill: var(--color5, #4285f4)" d="M29.482 16.819c0-1.108-0.092-1.917-0.291-2.756h-12.916v5.003h7.581c-0.153 1.243-0.978 3.116-2.812 4.374l-0.026 0.167 4.084 3.1 0.283 0.028c2.598-2.352 4.096-5.812 4.096-9.916z"></path>
<path fill="#34a853" style="fill: var(--color6, #34a853)" d="M16.275 30.001c3.714 0 6.832-1.198 9.11-3.266l-4.341-3.296c-1.162 0.794-2.721 1.348-4.769 1.348-3.638 0-6.725-2.352-7.826-5.602l-0.161 0.014-4.246 3.221-0.056 0.151c2.262 4.404 6.909 7.43 12.289 7.43z"></path>
<path fill="#fbbc05" style="fill: var(--color7, #fbbc05)" d="M8.451 19.186c-0.29-0.839-0.458-1.738-0.458-2.666s0.168-1.828 0.443-2.666l-0.008-0.179-4.3-3.272-0.141 0.066c-0.932 1.828-1.467 3.88-1.467 6.052s0.535 4.224 1.467 6.052l4.463-3.385z"></path>
<path fill="#eb4335" style="fill: var(--color8, #eb4335)" d="M16.275 8.251c2.583 0 4.326 1.094 5.319 2.007l3.882-3.715c-2.384-2.172-5.487-3.505-9.202-3.505-5.38 0-10.027 3.026-12.289 7.43l4.448 3.385c1.116-3.251 4.203-5.602 7.841-5.602z"></path>
</symbol>
<symbol id="hide-password" viewBox="0 0 31 32">
<path stroke-linejoin="round" stroke-linecap="round" stroke-miterlimit="4" stroke-width="2.56" d="M4.591 18.838c2.278 2.264 6.25 5.403 10.769 5.403s8.491-3.139 10.768-5.403c0.601-0.597 0.902-0.897 1.093-1.483 0.137-0.418 0.137-1.169 0-1.587-0.191-0.586-0.493-0.886-1.093-1.483-2.278-2.264-6.249-5.403-10.768-5.403s-8.491 3.139-10.769 5.403c-0.601 0.598-0.902 0.897-1.093 1.483-0.136 0.418-0.136 1.169 0 1.587 0.191 0.587 0.492 0.886 1.093 1.483z"></path>
<path stroke-linejoin="round" stroke-linecap="round" stroke-miterlimit="4" stroke-width="2.56" d="M12.8 16.561c0 1.414 1.146 2.56 2.56 2.56s2.56-1.146 2.56-2.56c0-1.414-1.146-2.56-2.56-2.56s-2.56 1.146-2.56 2.56z"></path>
</symbol>
<symbol id="show-password" viewBox="0 0 31 32">
<path fill="none" stroke="#bcc3d3" style="stroke: var(--color1, #bcc3d3)" stroke-linejoin="round" stroke-linecap="round" stroke-miterlimit="4" stroke-width="2.56" d="M27.221 13.118c0 0-0.493 0.886-1.093 1.483-2.278 2.264-6.249 5.403-10.768 5.403s-8.491-3.139-10.769-5.403c-0.601-0.598-1.093-1.483-1.093-1.483"></path>
<path fill="none" stroke="#bcc3d3" style="stroke: var(--color1, #bcc3d3)" stroke-linejoin="round" stroke-linecap="round" stroke-miterlimit="4" stroke-width="2.56" d="M6.14 17.557l-1.473 2.71"></path>
<path fill="none" stroke="#bcc3d3" style="stroke: var(--color1, #bcc3d3)" stroke-linejoin="round" stroke-linecap="round" stroke-miterlimit="4" stroke-width="2.56" d="M24.582 17.557l1.473 2.71"></path>
<path fill="none" stroke="#bcc3d3" style="stroke: var(--color1, #bcc3d3)" stroke-linejoin="round" stroke-linecap="round" stroke-miterlimit="4" stroke-width="2.56" d="M12.104 20.665l-1.108 2.879"></path>
<path fill="none" stroke="#bcc3d3" style="stroke: var(--color1, #bcc3d3)" stroke-linejoin="round" stroke-linecap="round" stroke-miterlimit="4" stroke-width="2.56" d="M18.616 20.665l1.108 2.879"></path>
</symbol>
<symbol id="input-check" viewBox="0 0 31 32">
<path fill="none" stroke="#4289fe" style="stroke: var(--color1, #4289fe)" stroke-linejoin="round" stroke-linecap="round" stroke-miterlimit="4" stroke-width="2.56" d="M19.2 14.001l-5.12 5.12-2.56-2.56M15.36 28.081c-6.362 0-11.52-5.158-11.52-11.52s5.158-11.52 11.52-11.52c6.362 0 11.52 5.158 11.52 11.52s-5.158 11.52-11.52 11.52z"></path>
</symbol>
</defs>
</svg>
